<?xml version="1.0" encoding="UTF-8"?>
<!DOCTYPE svg PUBLIC "-//W3C//DTD SVG 1.1//EN" "http://www.w3.org/Graphics/SVG/1.1/DTD/svg11.dtd">
<!-- Creator: CorelDRAW X7 -->
<svg xmlns="http://www.w3.org/2000/svg" xml:space="preserve" width="74.1157mm" height="98.7686mm" version="1.1" style="shape-rendering:geometricPrecision; text-rendering:geometricPrecision; image-rendering:optimizeQuality; fill-rule:evenodd; clip-rule:evenodd"
viewBox="0 0 1879 2504"
 xmlns:xlink="http://www.w3.org/1999/xlink">
 <defs>
  <style type="text/css">
   <![CDATA[
    .fil1 {fill:#373435}
    .fil0 {fill:url(#id3)}
   ]]>
  </style>
   <clipPath id="id0">
    <path d="M5 400l1872 -398 -1 1986 -1874 514 3 -2102z"/>
   </clipPath>
    <clipPath id="id1">
     <path d="M5 400l743 -158 1129 0 -1 1746 -1294 355 -580 0 3 -1943z"/>
    </clipPath>
    <clipPath id="id2">
     <path d="M5 400l1872 -398 -1 1986 -1874 514 3 -2102z"/>
    </clipPath>
  <radialGradient id="id3" gradientUnits="userSpaceOnUse" gradientTransform="matrix(0.74997 -0 -0 1 235 0)" cx="939.474" cy="1251.97" r="1249.82" fx="939.474" fy="1251.97">
   <stop offset="0" style="stop-opacity:1; stop-color:#737474"/>
   <stop offset="1" style="stop-opacity:1; stop-color:#201E1E"/>
  </radialGradient>
 </defs>
 <g id="Camada_x0020_1">
  <metadata id="CorelCorpID_0Corel-Layer"/>
  <polygon class="fil0" points="5,400 1877,2 1876,1988 2,2502 "/>
  <g style="clip-path:url(#id0)">
   <g id="_494529280">
   </g>
   <g style="clip-path:url(#id1)">
    <image id="mc.png" x="-14" y="242" width="1899" height="2101" xlink:href="mc2_Images\mc2_ImgID1.png"/>
   </g>
   <g style="clip-path:url(#id2)">
   </g>
  </g>
  <g>
   <path class="fil1" d="M4 398l1872 -398c2,0 3,1 3,2 0,0 0,0 0,0l-1 1986c0,1 0,2 -1,2l-1874 514c-1,0 -3,-1 -3,-2 0,0 0,0 0,0l0 0 3 -2102c0,-1 1,-1 1,-2l0 0zm1 2l1872 -398 -1 1986 -1874 514 3 -2102z"/>
  </g>
 </g>
</svg>
